<svg width="100" height="100" viewBox="0 0 100 100" fill="none" xmlns="http://www.w3.org/2000/svg">
<path d="M0 0H100V100H0V0Z" fill="#00326A"/>
<path fill-rule="evenodd" clip-rule="evenodd" d="M15.9035 62.125L29.6726 43.5429L33.4395 45.556L42.4026 31L47.9879 37.6588L50.0665 35.9553L58.1199 46.1755L63.8355 39.3619L79.8126 62.125L64.42 42.7689L62.0817 50.8984L64.225 57.3249L50.456 38.3556L50.3069 44.8279L58.1199 62.125L43.5064 35.3357L47.7282 49.8145L41.8181 35.7229L38.5706 45.0916L39.2198 38.9747L31.1013 61.0411L32.0753 51.75L28.6981 48.0338L15.9035 62.125Z" fill="#F9FBFD"/>
<path fill-rule="evenodd" clip-rule="evenodd" d="M84.4414 65.0314C62.641 47.428 28.7091 71.6289 15 62.2961C30.0723 75.5215 65.3019 53.1644 84.4414 65.0314Z" fill="#F9FBFD"/>
<path fill-rule="evenodd" clip-rule="evenodd" d="M85 66.4157C67.8956 55.5171 42.4568 70.6838 29.4189 67.1717C43.5467 74.0283 69.8482 58.8361 85 66.4157Z" fill="#F9FBFD"/>
</svg>
